/* XPM */
static char *closeI[] = {
/* columns rows colors chars-per-pixel */
"20 40 17 1 ",
"  c black",
". c #929292",
"X c #959595",
"o c gray59",
"O c #9B9B9B",
"+ c #9F9F9F",
"@ c gray63",
"# c #A5A5A5",
"$ c #A7A7A7",
"% c gray67",
"& c #AEAEAE",
"* c gray69",
"= c #B4B4B4",
"- c #B7B7B7",
"; c gray73",
": c gray74",
"> c #C0C0C0",
/* pixels */
">>>>>>>>>>>>>>>>>>>>",
">>................>>",
":..................:",
":.X::;;;;;:;;:;;:XX;",
";oo---;--;---;---oo-",
"-OO--  ==--=-  --OO=",
"*++*=   =*==   =*+O=",
"*++***   **   ***@@*",
"&@#&&&&      &&&*@@&",
"%##%%&%%    %&%%%##%",
"#%##&##%    %#&##%#%",
"#%*####      ####%*#",
"#**#@#   ##   #@#*&#",
"@**@@   @@@@   @@**@",
"+==++  ++@+@+  ++==+",
"O;-OOO+OOOOOO+O+O--O",
"o;;o+oOoOoOooOOoO;;X",
"o:::::::::::>:::::>o",
"XX>>>>>>>>>>>>>>>>.X",
"....................",
">>>>>>>>>>>>>>>>>>>>",
">>................>>",
">..................:",
";XXO+OO+OO+OOO+OOXX:",
"-ooO+O+OOO++OO+OOoo-",
"-OO+O  O+OOO+  O+OO-",
"=+OOO   +O+O   OO+O=",
"*+@OO+   OO   O+O+@*",
"&@#O++O      OOO+@#*",
"%##OOO+O    +O++O##%",
"%#%O+OOO    OOOOO%#%",
"#*&OOO+      ++OO%%#",
"#&*OOO   +O   +O+&&#",
"+*=O+   OOO+   OO**@",
"+==OO  O+@OOO  +O-=@",
"O-;OO+O+OO+OO+OOO--O",
"O;;OO+OOOO+O+OOOO;;O",
"X:::::;::::::::::::X",
"XX>>>>>>>>>>>>>>>>XX",
"...................."
};
