/* XPM */
static char *closeO[] = {
/* columns rows colors chars-per-pixel */
"20 40 28 1 ",
"  c #606060",
". c #9697BC",
"X c #9897BC",
"o c #9796BD",
"O c #9A99BC",
"+ c #9899BE",
"@ c #9B9ABF",
"# c #9C9CBF",
"$ c #9D9DC0",
"% c #9E9DC0",
"& c #A1A0C1",
"* c #9FA0C2",
"= c #A1A1C2",
"- c #A3A2C3",
"; c #A4A3C4",
": c #A5A6C4",
"> c #A5A5C4",
", c #A7A9C5",
"< c #A9A7C5",
"1 c #AAABC7",
"2 c #A9ABC8",
"3 c #ADABC8",
"4 c #ACADC9",
"5 c #AEADC8",
"6 c #ADACCB",
"7 c #B4B1C7",
"8 c #BEB8C5",
"9 c #C0C0C0",
/* pixels */
"99999999999999999999",
"99................99",
"9..........o.o.....9",
"7oo77777777777777oo7",
"6++77766447474774o.7",
"4$+44  444744  44#@4",
"2$$22   4222   22@#2",
"2$%,2,   >2   ,22**1",
",%-,,,,      ,,><*$,",
">--,>,>>    ,:,>,*>>",
">-->::::    ::::;=>;",
"->>-:==      -:-=<<*",
"%,<-*-   *=   &&=,<=",
"%22$%   %%&%   &%22%",
"$22$%  $&%#$%  &$24$",
"$76#######$$O%O%#47#",
"O74O%OOoOOOOOOOo#74O",
"O888888999949899949O",
"Oo9999999999999999XX",
"oo................XX",
"99999999999999999999",
"99...o............99",
"9o..oooooo.......o.9",
"4XoO##O%OO%O####OOo6",
"7OX$$###########%OO4",
"4#O##  ######  ##+$4",
"2$$##   ####   ##$$2",
"2$*###   ##   ###%%,",
"<==O###      ####&-,",
",==$####    #####==:",
">->#####    ####$:::",
"*>>####      ###$>>:",
"=,,$##   ##   ###<1=",
"=22##   ####   ##11*",
"*22##  ######  ##33*",
"O44##############44#",
"O94##############47O",
"O888888788888888888O",
"oo9999999999999999oo",
"....o..............."
};
