/* XPM */
static char *closeA[] = {
/* columns rows colors chars-per-pixel */
"20 40 33 1 ",
"  c white",
". c #7B79AA",
"X c #7D7CAB",
"o c #7D7DAC",
"O c #8080AD",
"+ c #8180AE",
"@ c #8384AF",
"# c #8484B1",
"$ c #8787B2",
"% c #8888B3",
"& c #8B8BB4",
"* c #8E8DB6",
"= c #8F8EB6",
"- c #908FB8",
"; c #9292B8",
": c #9393BA",
"> c #9495BC",
", c #9698BC",
"< c #9A99BC",
"1 c #9899BE",
"2 c #9C9CBF",
"3 c #A09FC0",
"4 c #9FA0C2",
"5 c #A3A2C3",
"6 c #A4A3C4",
"7 c #A5A5C4",
"8 c #A9A7C5",
"9 c #A9A8C7",
"0 c #ACAEC7",
"q c #ACADC9",
"w c #B4B1C7",
"e c #AFB6CB",
"r c #C0C0C0",
/* pixels */
"rrrrrrrrrrrrrrrrrrrr",
"rr................rr",
"e..................e",
"qooqqqqqqqqqqqqqqooq",
"9++99999999999989++9",
"7##77  777777  87##7",
"5%%55   5555   55%%5",
"3&&333   33   333&&3",
"2==2222      2222=-2",
"<;;<<<<<    <<<<<;;<",
">>>>>,>>    >>>>>>>>",
":11::::      ::::<1:",
"-22---   --   ---22-",
"=53*=   *-**   ==34=",
"%57&%  &&%&%&  &&56&",
"%88$%$$$$$$$$$$$$88$",
"@00@$@###########00#",
"Owwwwwwwqwwwweqe0eeO",
"XXrrrrrrrrrrrrrrrr.o",
"....................",
"rrrrrrrrrrrrrrrrrrrr",
"rr................rr",
"wX.................e",
"9X.$$$$$$$$$$$$$$ooq",
"0OO$$$$$$$$$$$$$$++9",
"7##$$  $$$$$$  $$##7",
"4%%$$   $$$$   $$%%5",
"3&&%$$   $$   $$$&&3",
"2==$$$$      $$$$==2",
"<;;$$$$$    $$$$$;;<",
">>>$$$$$    $$$$%>>>",
":11$$$$      $$$$1<;",
"-22%$$   $$   $$$22-",
"=34%$   $$$$   $$35*",
"&55%$  $$&$$$  $$75&",
"$88$$$$$$$$$$$$$$88%",
"#90$$$$$$$$$$$$$$8q#",
"Oewwwwwwwwwweewwwww+",
"oorrrrrrrrrrrrrrrrXX",
"...................."
};
