/* XPM */
static char *maximizeI[] = {
/* columns rows colors chars-per-pixel */
"20 40 17 1 ",
"  c white",
". c #929292",
"X c #959595",
"o c #989898",
"O c #9B9B9B",
"+ c gray62",
"@ c #9F9F9F",
"# c #A5A5A5",
"$ c #A7A7A7",
"% c gray67",
"& c #AEAEAE",
"* c gray69",
"= c gray70",
"- c #B6B6B6",
"; c gray73",
": c gray74",
"> c #C0C0C0",
/* pixels */
">>>>>>>>>>>>>>>>>>>>",
">>................>>",
":..................:",
":.X::;;;;;;::;;;:X.:",
";oX;            -oo;",
"-OO-            -OO-",
"=++= ========== =++=",
"*+@* ********** *@@*",
"*@#& &&&&&&&&&& *#+&",
"%##% %%%%%%%%%% %##%",
"#%#& %#&#&%##&& #%#&",
"#%%# ########## #%%#",
"#&*# ##@#@#@### #**#",
"@*=@ @@##@@#@+@ +**+",
"@==+ +@+++@+@+@ +*=@",
"O;;O            +:-+",
"o;:oOoOoOoOoOoOoo;;O",
"X::::::::::::::::::X",
"XX>>>>>>>>>>>>>>>>XX",
"....................",
">>>>>>>>>>>>>>>>>>>>",
">>................>>",
":..................:",
";XXOOOoOOOoOOOoOOXX:",
";XoO            OoX;",
"-OOo            OOO-",
"=++O OOOOoOOOoO o++=",
"*@@O OOoOOoOOOO O@+*",
"*@#o oOOOoOoOOO O@#&",
"%##O OoOOOOOoOo O##%",
"#&%o OOOOoOOOOO O##&",
"#%%O OoOOOoOoOO o&%#",
"#**o OOOOOoOOOO o**#",
"+*=O oOoOoOOOoO O=*@",
"+==O OOOOOoOOOo O=-+",
"+;-O            o;-+",
"o:;oOOooOoOoOoOoo:;o",
"X::::::::::::::::::X",
"XX>>>>>>>>>>>>>>>>XX",
"...................."
};
