/* XPM */
static char *maximizeO[] = {
/* columns rows colors chars-per-pixel */
"20 40 28 1 ",
"  c #606060",
". c #9697BC",
"X c #9796BD",
"o c #9A99BC",
"O c #9899BE",
"+ c #9B9ABD",
"@ c #9B9ABF",
"# c #9C9CBF",
"$ c #9D9DC0",
"% c #9E9DC0",
"& c #A1A0C1",
"* c #9FA0C2",
"= c #A1A1C2",
"- c #A3A2C3",
"; c #A4A3C4",
": c #A5A6C4",
"> c #A5A5C4",
", c #A7A9C5",
"< c #A9A8C7",
"1 c #AAABC7",
"2 c #A9ABC8",
"3 c #ADABC8",
"4 c #AEADC8",
"5 c #ADACCB",
"6 c #B4B1C7",
"7 c #AFB6CB",
"8 c #BEB8C5",
"9 c #C0C0C0",
/* pixels */
"99999999899999999999",
"99................99",
"9..............X.X.6",
"6XX66666666866666o.6",
"5@o6            5oo6",
"2@@2            2$$2",
"2$$2 2221313333 2o%2",
"2%$, 22211111,, 1%%2",
",$*, ,,,,,,,,,, ,-%,",
",--, ,;,;,>>>>> ,--,",
";;;; ;;;;;;;;;; -;;;",
"-,;- ---;------ -;;-",
"-,,- %---%-&-&& -,,-",
"$32$ %%%%-%-&&& %22%",
"$33$ %%%-o$%$%$ %23%",
"$55$            #63#",
"X66+ooooooX+oo#+o66o",
"o966999697969966699o",
"oX9999999999999999XX",
"XX..................",
"99999999999999999999",
"99................99",
"7X..XXXXXX.......X.6",
"6XXo#ooooooo++++oXX6",
"6XXo            Ooo6",
"3$%o            ##@2",
"2$$o ##o@o@o#o# o$$2",
"2%%o oo#o#o@o@o @$$2",
"<-*o #oo@o@oo## @%*2",
",-*# oo#o#o@#oo o;--",
"---@ ##ooOOooOo o-;;",
"*,;o o#@#o##o## @,,-",
"*<,o oooo%o%oo# o1,%",
"*22o o%o#oooooo o11-",
"%33# $oooo%o#o# o52%",
"#63o            o36$",
"o66oooXoooooo%o#o66o",
"o666999797967777977o",
"oX9999999999999999XX",
"XX.............X...."
};
