/* XPM */
static char *menuButtonI[] = {
/* columns rows colors chars-per-pixel */
"20 40 15 1 ",
"  c #929292",
". c #939393",
"X c gray60",
"o c gray61",
"O c gray62",
"+ c gray63",
"@ c #A4A4A4",
"# c #A7A7A7",
"$ c gray67",
"% c gray68",
"& c gray69",
"* c gray70",
"= c #B7B7B7",
"- c gray74",
"; c #C0C0C0",
/* pixels */
";;;;;;;;;;;;;;;;;;;;",
";;;;;;;;;;;;;;;;;;;;",
"-;---;--;-----------",
"-==-==-==-=-=-=-=-=-",
"====================",
"*=*====**==*==*===*=",
"************&***&***",
"&&&&&&&&&&&&&&&&&&&&",
"%%%%%%%%%%%%%%%%%%%%",
"$$$$$$$$$$$$$$$$$$$$",
"#$$#$##$#$$#$##$$#$#",
"####################",
"@@@@@@@@@@@@@@@@@@@@",
"++++++++++++++++++++",
"OOOOOOOOOOOOOOOOOOOO",
"oooooooooooooooooooo",
"XXXXXXXXXXXXXXXXXoXX",
"XX.X.X.X.X.X.X.XX.X.",
"  ............  .. .",
"         .   .      ",
";;;;;;;;;;;;;;;;;;;;",
";;;;;;;;;;;;;;;;;;;;",
"--oXXXXXXXoXXoXXoX-;",
"=-XXXoXoXoXXXXoXXX-=",
"==oXXXXXXoXoXXXoXX==",
"==XXXoXoXXXXoXXXoo*=",
"&*XXoXXXXoXXXoXoXX&*",
"&&XoXXXoXXoXXXXXoX&&",
"%%oXXXXXXoXoXXXXXo%%",
"$$XXXoXoXXXXoXoXXX$$",
"#$oXoXXXXoXXXXXoXX#$",
"##XXXXXoXXoXoXXXoo#@",
"@@XXXoXoXXXoXoXXoX@@",
"++XoXXXXoXXXXXoXXX++",
"OOXXXoXXXoXoXXXXoXOO",
"ooXoXXoXXXXXoXoXXXoo",
"XXXoXXXoXXXXXoXXXoXX",
"X.XooXXooXooXXoXXo.X",
" ...  ..  ....  ....",
"                    "
};
