/* XPM */
static char *menuButtonO[] = {
/* columns rows colors chars-per-pixel */
"20 40 17 1 ",
"  c #9697BC",
". c #9897BC",
"X c #9A98BC",
"o c #9B9ABD",
"O c #9D9CBF",
"+ c #9E9DBF",
"@ c #A09FC0",
"# c #A1A1C2",
"$ c #A4A3C4",
"% c #A5A5C4",
"& c #A7A6C6",
"* c #A9A8C7",
"= c #A9ABC8",
"- c #ACADC9",
"; c #ADACCB",
": c #AFB6CB",
"> c #C0C0C0",
/* pixels */
">>>>>>>>>>>>>>>>>>>>",
">>>>>>>>>>>>>>>>>>>>",
">::>:::>::>:>::>:::>",
"::::::::::::::::::::",
";;;::;;;-;;;:-;-:-:-",
"--------------------",
"===========--=-=====",
"&=&==&=&==&&=%-&&=&=",
"&&&&&&&&&&&&&&&&&&&$",
"%%%%$&&&$&%%$&&&%%&&",
"$$$$$$$$#%$$$$$$$$$$",
"##$$$##$#$##$###$#$$",
"##@###@#######@#####",
"@@@@@@@@##@@@@@@@@@@",
"@+++@+++++++++++++++",
"OOOO+oOOo+oO+oOOOOO+",
"oooooooooooooooooooo",
"XXXXXXXXXXXXXXXXXXXX",
"................X X ",
"                    ",
">>>>>>>>>>>>>>>>>>>>",
">>>>>>>>>>>>>>>>>>>>",
":>oooooooooooooooo;>",
"::oooooooooooooooo::",
"-:oooooooooooooooo;-",
"--ooooooooooooooo+--",
"==oooooooooooooooo==",
"%=oooooooooooooooo=%",
"&&oooooooooooooooo%%",
"%%oooooooooooooooo%%",
"$$oooooooooooooooo$$",
"$#ooooooooooooooo+##",
"##oooooooooooooooo+#",
"@@oooooooooooooooo@@",
"++oooooooooooooooo++",
"o+oooooooooooooooo+o",
"oooooooooooooooooooo",
"XoooooooooooooooooXX",
"X ..................",
"                    "
};
