/* XPM */
static char *minimizeA[] = {
/* columns rows colors chars-per-pixel */
"20 40 34 1 ",
"  c white",
". c #7B79AA",
"X c #7D7CAB",
"o c #7D7DAC",
"O c #8080AD",
"+ c #8180AE",
"@ c #8384AF",
"# c #8484B1",
"$ c #8787B2",
"% c #8888B3",
"& c #8A8AB3",
"* c #8B8BB4",
"= c #8E8DB6",
"- c #8F8EB6",
"; c #908FB8",
": c #9292B8",
"> c #9393BA",
", c #9495BC",
"< c #9698BC",
"1 c #9A99BC",
"2 c #9899BE",
"3 c #9C9CBF",
"4 c #A09FC0",
"5 c #9FA0C2",
"6 c #A3A2C3",
"7 c #A4A3C4",
"8 c #A5A5C4",
"9 c #A9A7C5",
"0 c #A9A8C7",
"q c #ACAEC7",
"w c #ACADC9",
"e c #B4B1C7",
"r c #AFB6CB",
"t c #C0C0C0",
/* pixels */
"tttttttttttttttttttt",
"tt................tt",
"r..................r",
"woowwwwwqqqqqwwwwoow",
"0++00000000000090++0",
"8##88888888888898##8",
"6%%66666666666666%%6",
"4**44444444444444**4",
"3--33333333333333-;3",
"1::11111111111111::1",
",,,,,,,,<<<<,,,,,,,,",
">22>>>>:>>>>>>::>12>",
";33;;;;;;;;;;;;;;33;",
"-64===--===;==---45-",
"%68**%        *%*67*",
"%99$$$        $$$99$",
"@qq$@@@$@$@$#####qq#",
"OewweewwwewwwwwqqrrO",
"XXtttttttttttttttt.o",
"....................",
"tttttttttttttttttttt",
"tt................tt",
"w..................r",
"wXX@@@@@@@@@@@@@#oow",
"0OO@@$@@@@@@@@@@#++9",
"8$@$O@@@@@@@@@@@###8",
"6%%@@@@@@@@@@@@@#%%6",
"4**@@@@@@@@@@@@@#**4",
"1--@@@@@@@@@@@@##*=3",
"1::+@@@@@@@@@@@##::1",
",,,@@@@@@@@@@@###<,,",
">11@@@@@@@@@@@###11:",
":43$#####O######@33-",
"-43#O#######O####66=",
"%78@##        #O@66*",
"$98###        ##@08#",
"@ww$#@$@#$###$##$qq$",
"+eewewewwewrrwwwewwO",
"oottttttttttttttttoo",
"...................."
};
