/* XPM */
static char *minimizeO[] = {
/* columns rows colors chars-per-pixel */
"20 40 29 1 ",
"  c #606060",
". c #9697BC",
"X c #9796BD",
"o c #9A99BC",
"O c #9899BE",
"+ c #9B9ABD",
"@ c #9B9ABF",
"# c #9C9CBF",
"$ c #9D9DC0",
"% c #9E9DC0",
"& c #A1A0C1",
"* c #9FA0C2",
"= c #A1A1C2",
"- c #A3A2C3",
"; c #A4A3C4",
": c #A5A6C4",
"> c #A5A5C4",
", c #A7A9C5",
"< c #A9A7C5",
"1 c #AAABC7",
"2 c #A9ABC8",
"3 c #ACADC9",
"4 c #AEADC8",
"5 c #ADACCB",
"6 c #B4B1C7",
"7 c #AFB6CB",
"8 c #BEB8C5",
"9 c #AEAFCF",
"0 c #C0C0C0",
/* pixels */
"00000000000000000000",
"00................00",
"0............X.....0",
"6XX66666666666668.X3",
"5OO66655555563666o.6",
"3$O33333333333333$@3",
"2$$22222222222111$$2",
"2$%<2,2,2<2<2<<11$$2",
",%-,,,,,,,,,,,,,,*%,",
">--,,,>>>>>>:,:,,-->",
">-->::::::::::::>-->",
"->>--:&---:%-:-&*><-",
"%,<-*-&--*---%%--2<*",
"%22$%%&%%%&&&%&&$22*",
"$22$%%        &&*22$",
"$65###        o&#33#",
"o66OoooooooooOO+o66o",
"o606000607060707060o",
"oX0000000000000000XX",
"XX...........X......",
"00000000000000000000",
"00................00",
"0X..XXXXXX.......X.0",
"6XXX#ooooooo++++oXX6",
"6Xooo#o##o#+++++#oo3",
"3o%o#o#oOoo+++++o$o3",
"3$$oo#oOo##o++++O%$2",
"2$%o#o#o#Oo#++++#$%,",
"1**oo#oOO#oO$o$oo-%,",
":--##Xo#o##ooOooO-*,",
":::O#OO##oo#o$$oo;::",
"->:#oo#oOo#oooo$o>,-",
"&1>##o#o#o#oo#o#o1,-",
"&22Xooo#o#o#oo#oo11%",
"%33oo$        o#o63-",
"o33#oo        #oo33o",
"o06oooXooOX+ooo#o66o",
"o676000606067007600X",
"X.0000000000000000.X",
"XX..X....X.........."
};
