/* XPM */
static char *restoreI[] = {
/* columns rows colors chars-per-pixel */
"20 40 17 1 ",
"  c black",
". c #929292",
"X c #959595",
"o c #989898",
"O c #9B9B9B",
"+ c gray62",
"@ c #9F9F9F",
"# c #A2A2A2",
"$ c #A5A5A5",
"% c gray67",
"& c #AEAEAE",
"* c #B1B1B1",
"= c #B4B4B4",
"- c #B7B7B7",
"; c gray73",
": c gray74",
"> c #C0C0C0",
/* pixels */
">>>>>>>>>>>>>>>>>>>>",
">>................>>",
":..................:",
":.X::;;;:;;;;;;:;XX;",
";oo----;;--;-;---oo;",
"=OO=-=-=       --Oo-",
"=O+=*=*=       ==++=",
"*@+**&** ***** **++*",
"&##&&&&& &&&&& &&##&",
"%$$%%       %& %%$$%",
"$%%$%          %$%$%",
"$%&$$ %$$$$ $$$$$%&#",
"#*&## ##### #$###&*@",
"@*=@@ #@##@ #@#@@==@",
"@==@@       @@+@+==+",
"+--O+O+O+O+O+O+O+--+",
"o;;o+oOoOoOoOoOoO;;o",
"o::::::::::::::::::o",
"XX>>>>>>>>>>>>>>>>XX",
"....................",
">>>>>>>>>>>>>>>>>>>>",
">>................>>",
":..................:",
";XXOOOOoOOOoOOOooXX:",
";XooOoOOOoOOOoOOOoX-",
"-OOOOOoO       OOOO-",
"=++OOOOO       oo++=",
"*++OoOoO OOoOO OO@+*",
"*#@OOOoO OOOOO oO##*",
"%$$OO       oO OO##%",
"$%$OO          Oo%%%",
"#&&Oo OOOoO OOOoO%&#",
"#*&oo OoOOO OOOoo*&#",
"@=*OO OOoOO oOOOO**@",
"+==OO       OoOoO=-+",
"O--OOoOOOOOoOOOOo--+",
"O:;oOOoOOoOoOoOoo:;o",
"X::::::::::::::::::X",
"XX>>>>>>>>>>>>>>>>XX",
"...................."
};
