/* XPM */
static char *restoreO[] = {
/* columns rows colors chars-per-pixel */
"20 40 30 1 ",
"  c #606060",
". c #9697BC",
"X c #9796BD",
"o c #9A99BC",
"O c #9899BE",
"+ c #9B9ABD",
"@ c #9B9ABF",
"# c #9C9CBF",
"$ c #9D9DC0",
"% c #9E9DBF",
"& c #9E9DC0",
"* c #A1A0C1",
"= c #9FA0C2",
"- c #A1A1C2",
"; c #A3A2C3",
": c #A4A3C4",
"> c #A5A6C4",
", c #A5A5C4",
"< c #A7A9C5",
"1 c #A9A7C5",
"2 c #AAABC7",
"3 c #A9ABC8",
"4 c #ACADC9",
"5 c #AEADC8",
"6 c #ADACCB",
"7 c #B4B1C7",
"8 c #AFB6CB",
"9 c #BEB8C5",
"0 c #AEAFCF",
"q c #C0C0C0",
/* pixels */
"qqqqqqqqqqqqqq9qqqqq",
"qq................qq",
"q.......X..X.X.....9",
"7XX77777885958888XX5",
"6OO77766558595548oX8",
"4$O44444       34#o4",
"3$$33333       31&$3",
"3$&13<3< 1313< 31&&3",
"<&;<<<<< <<<3, <1-$<",
",;;<<       << ,1--<",
",;;,>          >-,;<",
";,,;> ---;= ->---<1-",
"&<1;= *;--- --**-<<-",
"&33$& **&-& ****&33&",
"$33$&       *&&&&33&",
"$76#$###$#####o&#75o",
"X44ooX#ooooooX#o#4qo",
"oqq7qqq4q8q7qq88q4qo",
"ooqqqqqqqqqqqqqqqqX.",
"XX...........X......",
"qqqqqqqqqqqqqqqqqqqq",
"qq................qq",
"9X..XXXXXX..X....X.q",
"4XXo#ooooooo#Oo#oXX4",
"4oo#o#X#oo#o#o#oOoo4",
"4$$X+o#o       Oo#$4",
"3$$#o$o#       o$$$3",
"3=$o+o+o o$o#o #o&&1",
"3-=#ooo$ o$o$o o#-&<",
",;-o$       oO $o--<",
";::o+          oO;>>",
"-,1++ +Xoo$ X$Oo$<<-",
"-1<oo ooo&o #oo&o11-",
"&33oo &oooo ooooo<4*",
"&55oo       o&o&o55*",
"o53$$oooo&o#ooooo55o",
"oq3o&ooooOooooo&X4qo",
"o8q59999q7q78q88q89o",
"XXqqqqqqqqqqqqqqqq.X",
"XX..XX...X.....X...."
};
