/* XPM */
static char *titleAB[] = {
/* columns rows colors chars-per-pixel */
"1 20 19 1 ",
"  c #C0C0C0",
". c #AFB6CB",
"X c #ACADC9",
"o c #A9A8C7",
"O c #A5A5C4",
"+ c #A3A2C3",
"@ c #A09FC0",
"# c #9D9CBF",
"$ c #9A98BC",
"% c #9495BC",
"& c #9393BA",
"* c #908FB8",
"= c #8C8CB5",
"- c #8A88B3",
"; c #8586B1",
": c #8282AF",
"> c #807FAD",
", c #7D7CAB",
"< c #7B79AA",
/* pixels */
" ",
" ",
".",
"X",
"o",
"O",
"+",
"@",
"#",
"$",
"%",
"&",
"*",
"=",
"-",
";",
":",
">",
",",
"<"
};
