/* XPM */
static char *n5[] = {
/* columns rows colors chars-per-pixel */
"14 20 2 1 ",
"  c black",
". c #C2ACFF",
/* pixels */
"              ",
"  ..........  ",
" . ........   ",
" ..           ",
" ..           ",
" ..           ",
" ..           ",
" ..           ",
" .            ",
"  ..........  ",
"  ..........  ",
"            . ",
"           .. ",
"           .. ",
"           .. ",
"           .. ",
"           .. ",
"   ........ . ",
"  ..........  ",
"              "
};
