/* XPM */
static char *percent[] = {
/* columns rows colors chars-per-pixel */
"16 20 2 1 ",
"  c black",
". c #C2ACFF",
/* pixels */
"                ",
"  ....     ..   ",
" ..  ..    ..   ",
" .    .   ..    ",
" .    .   ..    ",
" .    .  ..     ",
" ..  ..  ..     ",
"  ....  ..      ",
"        ..      ",
"       ..       ",
"       ..       ",
"      ..        ",
"      ..  ....  ",
"     ..  ..  .. ",
"     ..  .    . ",
"    ..   .    . ",
"    ..   .    . ",
"   ..    ..  .. ",
"   ..     ....  ",
"                "
};
